<?xml version="1.0" encoding="utf-8"?>
<!-- Generator: Adobe Illustrator 23.0.1, SVG Export Plug-In . SVG Version: 6.00 Build 0)  -->
<svg version="1.1" id="Layer_1" xmlns="http://www.w3.org/2000/svg" xmlns:xlink="http://www.w3.org/1999/xlink" x="0px" y="0px"
	 viewBox="0 0 64 64" style="enable-background:new 0 0 64 64;" xml:space="preserve">
<style type="text/css">
	.st0{fill:none;stroke:#0756A3;stroke-width:2;stroke-linecap:round;stroke-linejoin:round;}
</style>
<title></title>
<g id="Icons">
	<circle class="st0" cx="30" cy="30" r="3"/>
	<circle class="st0" cx="39" cy="39" r="4"/>
	<circle class="st0" cx="41" cy="23" r="3"/>
	<circle class="st0" cx="24" cy="40" r="3"/>
	<circle class="st0" cx="23" cy="23" r="2"/>
	<path class="st0" d="M19.1,15.4c3.1-2.4,6.9-4,10.8-4.3c1.4-0.1,2.8-0.1,4.2,0c3.9,0.4,7.7,1.9,10.8,4.3"/>
	<path class="st0" d="M44.9,48.6c-3.1,2.4-6.9,4-10.8,4.3c-1.4,0.1-2.8,0.1-4.2,0c-3.9-0.4-7.7-1.9-10.8-4.3"/>
	<path class="st0" d="M15.4,44.9c-2.4-3.1-4-6.9-4.3-10.8c-0.1-1.4-0.1-2.8,0-4.2c0.2-2.4,0.9-4.7,1.9-6.9"/>
	<path class="st0" d="M51,41c1-2.2,1.7-4.5,1.9-6.9c0.1-1.4,0.1-2.8,0-4.2c-0.4-3.9-1.9-7.7-4.3-10.8"/>
	<path class="st0" d="M29.9,11.1c0-0.4,0.1-0.7,0.1-1.1c0.1-1.3,0.1-2.6,0.1-3.7C29.4,5.7,29,4.9,29,4c0-1.7,1.3-3,3-3
		c1.7,0,3,1.3,3,3c0,0.9-0.4,1.7-1.1,2.3c0,1.2,0,2.4,0.1,3.7c0,0.4,0,0.7,0.1,1.1"/>
	<path class="st0" d="M29.9,52.9c0,0.4,0.1,0.7,0.1,1.1c0.1,1.3,0.1,2.6,0.1,3.7C29.4,58.3,29,59.1,29,60c0,1.7,1.3,3,3,3
		c1.7,0,3-1.3,3-3c0-0.9-0.4-1.7-1.1-2.3c0-1.2,0-2.4,0.1-3.7c0-0.4,0-0.7,0.1-1.1"/>
	<path class="st0" d="M52.9,29.9c0.4,0,0.7,0.1,1.1,0.1c1.3,0.1,2.6,0.1,3.7,0.1c0.6-0.7,1.4-1.1,2.3-1.1c1.7,0,3,1.3,3,3
		c0,1.7-1.3,3-3,3c-0.9,0-1.7-0.4-2.3-1.1c-1.2,0-2.4,0-3.7,0.1c-0.4,0-0.7,0-1.1,0.1"/>
	<path class="st0" d="M11.1,34.1c-0.4,0-0.7-0.1-1.1-0.1c-1.3-0.1-2.6-0.1-3.7-0.1C5.7,34.6,4.9,35,4,35c-1.7,0-3-1.3-3-3
		c0-1.7,1.3-3,3-3c0.9,0,1.7,0.4,2.3,1.1c1.2,0,2.4,0,3.7-0.1c0.4,0,0.7,0,1.1-0.1"/>
	<circle class="st0" cx="10" cy="10" r="5"/>
	<path class="st0" d="M14.7,11.7c0.7,0.9,1.4,1.6,2.3,2.3c1.8,1.4,3.8,2.5,6,3"/>
	<path class="st0" d="M11.7,14.7c0.9,0.7,1.6,1.4,2.3,2.3c1.4,1.8,2.5,3.8,3,6"/>
	<circle class="st0" cx="54" cy="54" r="5"/>
	<path class="st0" d="M49.3,52.3c-0.7-0.9-1.4-1.6-2.3-2.3c-1.8-1.4-3.8-2.5-6-3"/>
	<path class="st0" d="M52.3,49.3c-0.9-0.7-1.6-1.4-2.3-2.3c-1.4-1.8-2.5-3.8-3-6"/>
	<circle class="st0" cx="54" cy="10" r="5"/>
	<path class="st0" d="M52.3,14.7c-0.9,0.7-1.6,1.4-2.3,2.3c-1.4,1.8-2.5,3.8-3,6"/>
	<path class="st0" d="M49.3,11.7c-0.7,0.9-1.4,1.6-2.3,2.3c-1.8,1.4-3.8,2.5-6,3"/>
	<circle class="st0" cx="10" cy="54" r="5"/>
	<path class="st0" d="M11.7,49.3c0.9-0.7,1.6-1.4,2.3-2.3c1.4-1.8,2.5-3.8,3-6"/>
	<path class="st0" d="M14.7,52.3c0.7-0.9,1.4-1.6,2.3-2.3c1.8-1.4,3.8-2.5,6-3"/>
</g>
</svg>
