<svg id="Layer_1" data-name="Layer 1" xmlns="http://www.w3.org/2000/svg" viewBox="0 0 59.38 59.38"><defs><style>.cls-1{fill:#0456a4;}</style></defs><title>instagram_lc_blue</title><path class="cls-1" d="M306.8,366.52a29.69,29.69,0,1,0,29.69,29.69A29.71,29.71,0,0,0,306.8,366.52Zm15.75,27.16V404a8,8,0,0,1-6.7,8c-.36,0-.72.18-1.27.18H299a8,8,0,0,1-8-7.78v-11h8.87c-.91,3.62-.18,6.52,2.9,8.69a6.79,6.79,0,0,0,8.15-.18c2.9-2.17,3.62-5.07,2.72-8.51h8.87Zm-20.09,2.17A4.33,4.33,0,0,1,307,391.5a4.14,4.14,0,0,1,4.16,4.34,4.34,4.34,0,0,1-8.69,0ZM322,390.6h-9.78c-.36,0-.54,0-.72-.36a7,7,0,0,0-9.59,0,.94.94,0,0,1-.72.36h-10c-.36-3.08,0-6,2.53-8.15l.36-.36v6.52h1.81v-7.24c0-.36,0-.54.36-.54.36-.18.91-.18,1.27-.36v8.15h1.81v-8.15h15.39a8,8,0,0,1,8,7.78v2.35Z" transform="translate(-277.11 -366.52)"/></svg>