<?xml version="1.0" encoding="utf-8"?>
<!-- Generator: Adobe Illustrator 27.7.0, SVG Export Plug-In . SVG Version: 6.00 Build 0)  -->
<svg version="1.1" id="Layer_1" xmlns="http://www.w3.org/2000/svg" xmlns:xlink="http://www.w3.org/1999/xlink" x="0px" y="0px"
	 viewBox="0 0 580.8 580.8" style="enable-background:new 0 0 580.8 580.8;" xml:space="preserve">
<style type="text/css">
	.st0{fill:#FFFFFF;}
</style>
<g>
	<path class="st0" d="M290.3,139.4c-82,0-149.9,66.7-149.9,149.9s66.7,149.9,149.9,149.9s149.9-67.9,149.9-149.9
		C440.2,207.2,372.3,139.4,290.3,139.4z M290.3,385.2c-52.7,0-96-43.4-96-96c0-52.7,43.4-96,96-96c52.7,0,96,43.4,96,96
		C386.4,341.9,343,385.2,290.3,385.2z"/>
	<circle class="st0" cx="446.1" cy="135.8" r="33.9"/>
	<path class="st0" d="M533.9,48C503.5,16.4,460.1,0,411,0H169.8C67.9,0,0,67.9,0,169.8v240c0,50.4,16.4,93.7,49.2,125.3
		c31.6,30.4,73.8,45.7,121.8,45.7h238.8c50.4,0,92.5-16.4,122.9-45.7c31.6-30.4,48-73.8,48-124.1V169.8
		C580.8,120.6,564.3,78.5,533.9,48z M529.2,411c0,36.3-12.8,65.6-33.9,85.5s-50.4,30.4-85.5,30.4H171c-35.1,0-64.4-10.5-85.5-30.4
		c-21.1-21.1-31.6-50.4-31.6-86.6v-240c0-35.1,10.5-64.4,31.6-85.5c19.9-19.9,50.4-30.4,85.5-30.4h241.2c35.1,0,64.4,10.5,85.5,31.6
		c19.9,21.1,31.6,50.4,31.6,84.3V411L529.2,411z"/>
</g>
</svg>
