<?xml version="1.0" encoding="utf-8"?>
<!-- Generator: Adobe Illustrator 27.7.0, SVG Export Plug-In . SVG Version: 6.00 Build 0)  -->
<svg version="1.1" id="Layer_1" xmlns="http://www.w3.org/2000/svg" xmlns:xlink="http://www.w3.org/1999/xlink" x="0px" y="0px"
	 viewBox="0 0 607.6 580.8" style="enable-background:new 0 0 607.6 580.8;" xml:space="preserve">
<style type="text/css">
	.st0{fill:#FFFFFF;}
</style>
<g>
	<rect x="7.7" y="188.9" class="st0" width="130.2" height="391.9"/>
	<path class="st0" d="M72.8,135.3H72c-43.7,0-72-30.1-72-67.7C0,29.2,29.1,0,73.7,0s72,29.3,72.8,67.7
		C146.5,105.2,118.2,135.3,72.8,135.3z"/>
	<path class="st0" d="M607.6,580.7H477.3V371c0-52.7-18.8-88.6-66-88.6c-36,0-57.4,24.2-66.9,47.7c-3.4,8.4-4.3,20.1-4.3,31.8v218.8
		H210c0,0,1.7-355.1,0-391.9h130.2v55.5c17.3-26.7,48.3-64.7,117.4-64.7c85.7,0,149.9,56,149.9,176.4L607.6,580.7L607.6,580.7z"/>
</g>
</svg>
