<?xml version="1.0" encoding="utf-8"?>
<!-- Generator: Adobe Illustrator 27.7.0, SVG Export Plug-In . SVG Version: 6.00 Build 0)  -->
<svg version="1.1" id="Layer_1" xmlns="http://www.w3.org/2000/svg" xmlns:xlink="http://www.w3.org/1999/xlink" x="0px" y="0px"
	 viewBox="0 0 580.8 580.8" style="enable-background:new 0 0 580.8 580.8;" xml:space="preserve">
<style type="text/css">
	.st0{fill:#FFFFFF;}
</style>
<path class="st0" d="M431.8,435.8H319.7c-79.8,0-92.5-35.3-92.5-68c0-15.5,1-41.1,1.9-72.5h187.3c28,0,81.5-11.5,81.5-62.8
	c0-51.3-24.7-84.8-57.8-84.8H231.3C231.1,73.7,226.3,0,154.1,0C124.2,0,100,12.3,89.8,42.7c-13.4,40.1-9.8,86.9-9.7,128.6
	c0.1,8,0.1,15.9,0.1,23.8c0.1,27.3,0.7,54.8,0.8,82.2c0.1,29.5,0.1,59.1,0.1,88.6c0,165.4,150.3,212.2,179.1,212.2
	c28.9,0,141.7,2.7,162.2,2.7s78.9-5.4,78.9-64.6C501.3,457,459.8,435.8,431.8,435.8z"/>
</svg>
