<?xml version="1.0" encoding="UTF-8"?>
<svg id="Layer_1" data-name="Layer 1" xmlns="http://www.w3.org/2000/svg" viewBox="0 0 678.31 162">
  <defs>
    <style>
      .cls-1, .cls-2 {
        fill: #fff;
      }

      .cls-2 {
        fill-rule: evenodd;
      }
    </style>
  </defs>
  <g>
    <path class="cls-1" d="m211.51,67.49V16.52h6.48v44.93h14.4v6.05h-20.88Z"/>
    <path class="cls-1" d="m261.83,49.49c0,2.88-.3,5.5-.9,7.85-.6,2.35-1.46,4.37-2.59,6.05-1.13,1.68-2.51,2.99-4.14,3.92-1.63.94-3.48,1.4-5.54,1.4s-3.84-.47-5.47-1.4c-1.63-.94-3.01-2.24-4.14-3.92-1.13-1.68-1.99-3.7-2.59-6.05-.6-2.35-.9-4.97-.9-7.85s.3-5.52.9-7.92c.6-2.4,1.45-4.44,2.56-6.12,1.1-1.68,2.47-2.99,4.1-3.92,1.63-.94,3.48-1.4,5.54-1.4s3.91.47,5.54,1.4c1.63.94,3.01,2.24,4.14,3.92,1.13,1.68,1.99,3.72,2.59,6.12.6,2.4.9,5.04.9,7.92Zm-6.34-.04c0-1.96-.13-3.79-.4-5.49-.26-1.7-.68-3.17-1.26-4.42-.58-1.24-1.3-2.23-2.16-2.94-.86-.72-1.87-1.08-3.02-1.08s-2.16.36-3.02,1.08c-.86.72-1.57,1.7-2.12,2.94-.55,1.24-.96,2.72-1.22,4.42-.26,1.7-.4,3.53-.4,5.49s.13,3.78.4,5.46c.26,1.68.67,3.14,1.22,4.38.55,1.24,1.26,2.23,2.12,2.94.86.72,1.87,1.08,3.02,1.08s2.23-.36,3.1-1.08c.86-.72,1.57-1.7,2.12-2.94.55-1.25.96-2.71,1.22-4.38.26-1.68.4-3.5.4-5.46Z"/>
    <path class="cls-1" d="m279.19,32.21c1.39-1.39,3-2.09,4.82-2.09.38,0,.67.03.86.07l-.29,6.41c-.19-.05-.38-.08-.58-.11-.19-.02-.41-.04-.65-.04-1.15,0-2.17.37-3.06,1.12-.89.75-1.63,1.72-2.23,2.92-.6,1.2-1.06,2.56-1.37,4.07-.31,1.51-.47,3.06-.47,4.64v18.29h-6.19v-27c0-1.44-.02-2.99-.07-4.64-.05-1.66-.12-3.16-.22-4.5h5.83c.14,1.2.25,2.45.32,3.74.07,1.3.11,2.54.11,3.74h.14c.62-3.02,1.63-5.23,3.02-6.62Z"/>
    <path class="cls-1" d="m306.26,67.49c-.19-1.1-.34-2.21-.43-3.31-.1-1.1-.14-1.99-.14-2.66h-.14c-.53,2.16-1.48,3.85-2.84,5.08-1.37,1.22-3.25,1.84-5.65,1.84-1.01,0-2.04-.19-3.1-.58-1.06-.38-2-1.01-2.84-1.87-.84-.86-1.54-1.97-2.09-3.31-.55-1.34-.83-3-.83-4.97,0-2.59.47-4.72,1.4-6.37s2.11-2.95,3.53-3.89c1.42-.94,2.99-1.57,4.72-1.91,1.73-.33,3.38-.5,4.97-.5h2.38v-1.58c0-2.83-.54-4.88-1.62-6.16-1.08-1.27-2.53-1.91-4.36-1.91-1.34,0-2.59.34-3.74,1.01-1.15.67-2.14,1.56-2.95,2.66l-3.1-3.82c1.2-1.63,2.76-2.89,4.68-3.78,1.92-.89,3.82-1.33,5.69-1.33,2.06,0,3.8.34,5.22,1.01,1.42.67,2.56,1.66,3.42,2.95.86,1.3,1.48,2.89,1.84,4.79.36,1.9.54,4.04.54,6.44v14.62c0,1.25.05,2.6.14,4.07.1,1.46.22,2.63.36,3.49h-5.04Zm-.94-17.78h-2.66c-1.1,0-2.17.1-3.2.29-1.03.19-1.96.56-2.77,1.12-.82.55-1.48,1.31-1.98,2.27-.5.96-.76,2.18-.76,3.67,0,2.21.48,3.83,1.44,4.86.96,1.03,2.06,1.55,3.31,1.55s2.29-.37,3.13-1.12c.84-.74,1.52-1.69,2.05-2.84.53-1.15.9-2.41,1.12-3.78.22-1.37.32-2.67.32-3.92v-2.09Z"/>
    <path class="cls-1" d="m328.5,20.62c0,1.2-.37,2.18-1.12,2.95-.74.77-1.64,1.15-2.7,1.15s-2.02-.38-2.74-1.15c-.72-.77-1.08-1.75-1.08-2.95s.36-2.12,1.08-2.92c.72-.79,1.63-1.19,2.74-1.19s2.02.4,2.74,1.19c.72.79,1.08,1.76,1.08,2.92Zm-6.91,46.87V31.35h6.12v36.14h-6.12Z"/>
    <path class="cls-1" d="m356.94,67.49v-23.09c0-1.01-.05-2.04-.14-3.1-.1-1.06-.32-2.02-.68-2.89s-.88-1.56-1.55-2.09c-.67-.53-1.58-.79-2.74-.79-1.01,0-1.94.28-2.81.83-.86.55-1.61,1.32-2.23,2.31-.62.99-1.1,2.17-1.44,3.54-.34,1.37-.5,2.87-.5,4.51v20.78h-6.12v-27c0-1.44-.02-2.99-.07-4.64-.05-1.66-.12-3.16-.22-4.5h5.83c.14,1.2.25,2.4.32,3.6.07,1.2.11,2.09.11,2.66h.14c.67-2.11,1.79-3.89,3.35-5.33,1.56-1.44,3.47-2.16,5.72-2.16,1.92,0,3.49.41,4.72,1.22s2.16,1.9,2.81,3.24c.65,1.34,1.09,2.88,1.33,4.61.24,1.73.36,3.48.36,5.26v23.04h-6.19Z"/>
    <path class="cls-1" d="m407.56,66.88c-2.02,1.22-4.46,1.84-7.34,1.84s-5.38-.67-7.63-2.02c-2.26-1.34-4.15-3.21-5.69-5.62-1.54-2.4-2.71-5.22-3.53-8.46-.82-3.24-1.22-6.78-1.22-10.62s.42-7.39,1.26-10.66c.84-3.26,2.04-6.08,3.6-8.46,1.56-2.38,3.46-4.24,5.69-5.58,2.23-1.34,4.74-2.02,7.52-2.02,2.59,0,4.97.5,7.13,1.51,2.16,1.01,3.94,2.54,5.33,4.61l-4.03,4.39c-1.06-1.54-2.28-2.67-3.67-3.42-1.39-.74-2.88-1.12-4.46-1.12-1.97,0-3.67.55-5.11,1.66-1.44,1.11-2.63,2.59-3.56,4.46-.94,1.87-1.64,4.07-2.12,6.59-.48,2.52-.72,5.2-.72,8.03s.24,5.5.72,7.99c.48,2.5,1.2,4.69,2.16,6.59.96,1.9,2.17,3.4,3.64,4.5,1.46,1.1,3.18,1.66,5.15,1.66,1.77,0,3.35-.48,4.72-1.44,1.37-.96,2.46-2.13,3.28-3.53l3.89,4.25c-1.3,2.02-2.95,3.64-4.97,4.86Z"/>
    <path class="cls-1" d="m442.84,49.49c0,2.88-.3,5.5-.9,7.85-.6,2.35-1.46,4.37-2.59,6.05-1.13,1.68-2.51,2.99-4.14,3.92-1.63.94-3.48,1.4-5.54,1.4s-3.84-.47-5.47-1.4c-1.63-.94-3.01-2.24-4.14-3.92-1.13-1.68-1.99-3.7-2.59-6.05-.6-2.35-.9-4.97-.9-7.85s.3-5.52.9-7.92c.6-2.4,1.45-4.44,2.56-6.12,1.1-1.68,2.47-2.99,4.1-3.92,1.63-.94,3.48-1.4,5.54-1.4s3.91.47,5.54,1.4c1.63.94,3.01,2.24,4.14,3.92,1.13,1.68,1.99,3.72,2.59,6.12.6,2.4.9,5.04.9,7.92Zm-6.34-.04c0-1.96-.13-3.79-.4-5.49-.26-1.7-.68-3.17-1.26-4.42-.58-1.24-1.3-2.23-2.16-2.94-.86-.72-1.87-1.08-3.02-1.08s-2.16.36-3.02,1.08c-.86.72-1.57,1.7-2.12,2.94s-.96,2.72-1.22,4.42c-.26,1.7-.4,3.53-.4,5.49s.13,3.78.4,5.46c.26,1.68.67,3.14,1.22,4.38.55,1.24,1.26,2.23,2.12,2.94.86.72,1.87,1.08,3.02,1.08s2.23-.36,3.1-1.08c.86-.72,1.57-1.7,2.12-2.94.55-1.25.96-2.71,1.22-4.38.26-1.68.4-3.5.4-5.46Z"/>
    <path class="cls-1" d="m456.8,31.42v23.04c0,1.01.05,2.04.14,3.1.09,1.06.32,2.02.68,2.88.36.86.88,1.56,1.55,2.09.67.53,1.58.79,2.74.79,1.01,0,1.94-.28,2.81-.83.86-.55,1.61-1.32,2.23-2.3.62-.98,1.1-2.16,1.44-3.53s.5-2.87.5-4.5v-20.74h6.12v27c0,1.44.02,2.98.07,4.62.05,1.64.12,3.13.22,4.45h-5.83c-.14-1.2-.25-2.4-.32-3.6-.07-1.2-.11-2.09-.11-2.66h-.14c-.67,2.11-1.79,3.89-3.35,5.33-1.56,1.44-3.47,2.16-5.72,2.16-1.97,0-3.55-.4-4.75-1.21-1.2-.81-2.12-1.87-2.77-3.2-.65-1.33-1.09-2.86-1.33-4.59-.24-1.73-.36-3.48-.36-5.26v-23.04h6.19Z"/>
    <path class="cls-1" d="m503.6,67.49v-23.09c0-1.01-.05-2.04-.14-3.1-.1-1.06-.32-2.02-.68-2.89-.36-.87-.88-1.56-1.55-2.09-.67-.53-1.58-.79-2.74-.79-1.01,0-1.94.28-2.81.83s-1.61,1.32-2.23,2.31c-.62.99-1.1,2.17-1.44,3.54-.34,1.37-.5,2.87-.5,4.51v20.78h-6.12v-27c0-1.44-.02-2.99-.07-4.64-.05-1.66-.12-3.16-.22-4.5h5.83c.14,1.2.25,2.4.32,3.6.07,1.2.11,2.09.11,2.66h.14c.67-2.11,1.79-3.89,3.35-5.33,1.56-1.44,3.47-2.16,5.72-2.16,1.92,0,3.49.41,4.72,1.22,1.22.82,2.16,1.9,2.81,3.24.65,1.34,1.09,2.88,1.33,4.61.24,1.73.36,3.48.36,5.26v23.04h-6.19Z"/>
    <path class="cls-1" d="m531.11,68.14c-.86.19-1.73.29-2.59.29-2.78,0-4.76-.89-5.94-2.66-1.18-1.78-1.76-4.25-1.76-7.42v-22.03h-4.61v-4.97h4.54v-9.65h5.98v9.65h6.41v4.97h-6.41v20.75c0,2.11.31,3.63.94,4.56.62.93,1.56,1.4,2.81,1.4.43,0,.89-.05,1.37-.16.48-.11.89-.22,1.22-.35l.14,4.9c-.53.29-1.22.53-2.09.72Z"/>
    <path class="cls-1" d="m554.29,74.05c-.43,1.63-.92,3.11-1.48,4.43-.55,1.32-1.22,2.45-2.02,3.38-.79.94-1.74,1.65-2.84,2.16-1.1.5-2.4.76-3.89.76-.82,0-1.61-.06-2.38-.18-.77-.12-1.39-.25-1.87-.4l.79-5.54c.91.33,1.87.5,2.88.5,1.39,0,2.44-.43,3.13-1.3.7-.86,1.24-2.06,1.62-3.6l1.37-5.69-10.66-37.22h6.48l7.13,28.94h.14l6.48-28.94h6.26l-11.16,42.7Z"/>
    <path class="cls-1" d="m230.31,138.93c-1.85,1.12-4.09,1.68-6.73,1.68s-4.93-.62-7-1.85c-2.07-1.23-3.81-2.95-5.21-5.15-1.41-2.2-2.49-4.79-3.23-7.75-.75-2.97-1.12-6.21-1.12-9.74s.38-6.78,1.15-9.77c.77-2.99,1.87-5.58,3.3-7.75,1.43-2.18,3.17-3.88,5.21-5.12,2.05-1.23,4.34-1.85,6.9-1.85,2.38,0,4.55.46,6.53,1.39s3.61,2.33,4.88,4.22l-3.7,4.03c-.97-1.41-2.09-2.45-3.37-3.13-1.28-.68-2.64-1.02-4.09-1.02-1.8,0-3.37.51-4.69,1.52-1.32,1.01-2.41,2.38-3.27,4.09s-1.51,3.73-1.95,6.04c-.44,2.31-.66,4.76-.66,7.36s.22,5.04.66,7.33c.44,2.29,1.1,4.3,1.98,6.04.88,1.74,1.99,3.11,3.33,4.12,1.34,1.01,2.91,1.52,4.72,1.52,1.63,0,3.07-.44,4.32-1.32,1.25-.88,2.25-1.96,3-3.23l3.56,3.89c-1.19,1.85-2.71,3.33-4.55,4.46Z"/>
    <path class="cls-1" d="m262.06,122.99c0,2.64-.28,5.04-.83,7.19-.55,2.16-1.34,4-2.38,5.54-1.03,1.54-2.3,2.74-3.79,3.6-1.5.86-3.19,1.29-5.08,1.29s-3.52-.43-5.02-1.29c-1.5-.86-2.76-2.06-3.79-3.6-1.03-1.54-1.83-3.39-2.38-5.54-.55-2.16-.82-4.55-.82-7.19s.27-5.06.82-7.26c.55-2.2,1.33-4.07,2.34-5.61,1.01-1.54,2.27-2.74,3.76-3.6,1.5-.86,3.19-1.29,5.08-1.29s3.59.43,5.08,1.29c1.5.86,2.76,2.06,3.79,3.6,1.03,1.54,1.83,3.41,2.38,5.61.55,2.2.83,4.62.83,7.26Zm-5.81-.03c0-1.8-.12-3.48-.36-5.04-.24-1.56-.63-2.91-1.16-4.05-.53-1.14-1.19-2.04-1.98-2.7-.79-.66-1.72-.99-2.77-.99s-1.98.33-2.77.99c-.79.66-1.44,1.56-1.95,2.7-.51,1.14-.88,2.49-1.12,4.05-.24,1.56-.36,3.24-.36,5.04s.12,3.47.36,5c.24,1.54.62,2.88,1.12,4.02.51,1.14,1.15,2.04,1.95,2.7.79.66,1.72.99,2.77.99s2.05-.33,2.84-.99c.79-.66,1.44-1.56,1.95-2.7.51-1.14.88-2.48,1.12-4.02.24-1.54.36-3.2.36-5Z"/>
    <path class="cls-1" d="m278.06,107.22c1.39-1.32,3.18-1.98,5.38-1.98,1.19,0,2.21.2,3.07.59.86.4,1.58.91,2.18,1.55.59.64,1.07,1.36,1.42,2.18.35.81.64,1.66.86,2.54h.13c.31-.79.7-1.59,1.19-2.41.48-.81,1.09-1.55,1.81-2.21s1.56-1.2,2.51-1.62c.95-.42,2.01-.63,3.2-.63,1.76,0,3.2.37,4.32,1.12s1.98,1.74,2.57,2.97c.59,1.23,1,2.64,1.22,4.22.22,1.58.33,3.19.33,4.82v21.12h-5.68v-21.17c0-.93-.04-1.87-.13-2.84-.09-.97-.3-1.85-.63-2.65-.33-.79-.8-1.43-1.42-1.92-.62-.48-1.45-.73-2.51-.73-.92,0-1.77.25-2.54.76-.77.51-1.43,1.21-1.98,2.12-.55.9-.98,1.99-1.29,3.24-.31,1.26-.46,2.63-.46,4.13v19.05h-5.54v-21.17c0-.93-.04-1.87-.13-2.84-.09-.97-.3-1.85-.63-2.65-.33-.79-.8-1.43-1.42-1.92-.62-.48-1.45-.73-2.51-.73-.92,0-1.77.25-2.54.76-.77.51-1.43,1.21-1.98,2.12-.55.9-.97,1.99-1.25,3.24-.29,1.26-.43,2.63-.43,4.13v19.05h-5.54v-24.75c0-1.32-.02-2.74-.07-4.26-.04-1.52-.11-2.89-.2-4.12h5.35c.13,1.1.23,2.2.3,3.3.07,1.1.1,1.91.1,2.44h.13c.48-1.94,1.42-3.56,2.81-4.88Z"/>
    <path class="cls-1" d="m326.5,107.22c1.39-1.32,3.18-1.98,5.38-1.98,1.19,0,2.21.2,3.07.59.86.4,1.58.91,2.18,1.55.59.64,1.07,1.36,1.42,2.18.35.81.64,1.66.86,2.54h.13c.31-.79.7-1.59,1.19-2.41.48-.81,1.09-1.55,1.81-2.21s1.56-1.2,2.51-1.62c.95-.42,2.01-.63,3.2-.63,1.76,0,3.2.37,4.32,1.12s1.98,1.74,2.57,2.97c.59,1.23,1,2.64,1.22,4.22.22,1.58.33,3.19.33,4.82v21.12h-5.68v-21.17c0-.93-.04-1.87-.13-2.84-.09-.97-.3-1.85-.63-2.65-.33-.79-.8-1.43-1.42-1.92-.62-.48-1.45-.73-2.51-.73-.92,0-1.77.25-2.54.76-.77.51-1.43,1.21-1.98,2.12-.55.9-.98,1.99-1.29,3.24-.31,1.26-.46,2.63-.46,4.13v19.05h-5.54v-21.17c0-.93-.04-1.87-.13-2.84-.09-.97-.3-1.85-.63-2.65-.33-.79-.8-1.43-1.42-1.92-.62-.48-1.45-.73-2.51-.73-.92,0-1.77.25-2.54.76-.77.51-1.43,1.21-1.98,2.12-.55.9-.97,1.99-1.25,3.24-.29,1.26-.43,2.63-.43,4.13v19.05h-5.54v-24.75c0-1.32-.02-2.74-.07-4.26-.04-1.52-.11-2.89-.2-4.12h5.35c.13,1.1.23,2.2.3,3.3.07,1.1.1,1.91.1,2.44h.13c.48-1.94,1.42-3.56,2.81-4.88Z"/>
    <path class="cls-1" d="m371.81,106.43v21.12c0,.92.04,1.87.13,2.84.09.97.3,1.85.63,2.64s.8,1.43,1.42,1.91c.62.48,1.45.73,2.51.73.92,0,1.78-.25,2.57-.76s1.47-1.21,2.05-2.11c.57-.9,1.01-1.98,1.32-3.23.31-1.25.46-2.63.46-4.12v-19.01h5.61v24.75c0,1.32.02,2.73.07,4.24.04,1.51.11,2.87.2,4.08h-5.35c-.13-1.1-.23-2.2-.3-3.3-.07-1.1-.1-1.91-.1-2.44h-.13c-.62,1.94-1.64,3.56-3.07,4.88-1.43,1.32-3.18,1.98-5.25,1.98-1.8,0-3.26-.37-4.36-1.11-1.1-.74-1.95-1.72-2.54-2.94-.59-1.22-1-2.62-1.22-4.21-.22-1.58-.33-3.19-.33-4.82v-21.12h5.68Z"/>
    <path class="cls-1" d="m415.44,139.49v-21.17c0-.93-.04-1.87-.13-2.84-.09-.97-.3-1.85-.63-2.65-.33-.79-.8-1.43-1.42-1.92-.62-.48-1.45-.73-2.51-.73-.92,0-1.78.25-2.57.76s-1.48,1.21-2.05,2.12c-.57.9-1.01,1.99-1.32,3.24-.31,1.26-.46,2.63-.46,4.13v19.05h-5.61v-24.75c0-1.32-.02-2.74-.07-4.26-.04-1.52-.11-2.89-.2-4.12h5.35c.13,1.1.23,2.2.3,3.3.07,1.1.1,1.91.1,2.44h.13c.62-1.94,1.64-3.56,3.07-4.88,1.43-1.32,3.18-1.98,5.25-1.98,1.76,0,3.2.37,4.32,1.12s1.98,1.74,2.57,2.97c.59,1.23,1,2.64,1.22,4.22.22,1.58.33,3.19.33,4.82v21.12h-5.68Z"/>
    <path class="cls-1" d="m437.15,96.53c0,1.1-.34,2-1.02,2.71-.68.7-1.51,1.06-2.47,1.06s-1.85-.35-2.51-1.06c-.66-.7-.99-1.61-.99-2.71s.33-1.95.99-2.67c.66-.73,1.5-1.09,2.51-1.09s1.85.36,2.51,1.09c.66.73.99,1.62.99,2.67Zm-6.34,42.97v-33.13h5.61v33.13h-5.61Z"/>
    <path class="cls-1" d="m457.02,140.09c-.79.18-1.58.26-2.38.26-2.55,0-4.37-.82-5.44-2.44-1.08-1.63-1.62-3.89-1.62-6.8v-20.2h-4.22v-4.55h4.16v-8.84h5.48v8.84h5.87v4.55h-5.87v19.02c0,1.93.29,3.33.86,4.18.57.86,1.43,1.28,2.57,1.28.4,0,.81-.05,1.25-.14.44-.1.81-.2,1.12-.32l.13,4.49c-.48.26-1.12.48-1.91.66Z"/>
    <path class="cls-1" d="m477.67,145.5c-.4,1.5-.85,2.85-1.35,4.06-.51,1.21-1.12,2.24-1.85,3.1-.73.86-1.59,1.52-2.61,1.98-1.01.46-2.2.69-3.56.69-.75,0-1.47-.06-2.18-.17-.7-.11-1.28-.23-1.72-.36l.73-5.08c.84.31,1.72.46,2.64.46,1.28,0,2.23-.4,2.87-1.19.64-.79,1.13-1.89,1.48-3.3l1.25-5.21-9.77-34.12h5.94l6.53,26.53h.13l5.94-26.53h5.74l-10.23,39.14Z"/>
    <path class="cls-1" d="m527.11,138.93c-1.85,1.12-4.09,1.68-6.73,1.68s-4.93-.62-7-1.85c-2.07-1.23-3.81-2.95-5.21-5.15-1.41-2.2-2.49-4.79-3.23-7.75-.75-2.97-1.12-6.21-1.12-9.74s.38-6.78,1.16-9.77c.77-2.99,1.87-5.58,3.3-7.75,1.43-2.18,3.17-3.88,5.21-5.12,2.05-1.23,4.34-1.85,6.9-1.85,2.38,0,4.55.46,6.53,1.39,1.98.92,3.61,2.33,4.88,4.22l-3.7,4.03c-.97-1.41-2.09-2.45-3.37-3.13-1.28-.68-2.64-1.02-4.09-1.02-1.8,0-3.37.51-4.69,1.52-1.32,1.01-2.41,2.38-3.27,4.09-.86,1.72-1.51,3.73-1.95,6.04-.44,2.31-.66,4.76-.66,7.36s.22,5.04.66,7.33c.44,2.29,1.1,4.3,1.98,6.04.88,1.74,1.99,3.11,3.33,4.12,1.34,1.01,2.91,1.52,4.72,1.52,1.63,0,3.07-.44,4.32-1.32,1.25-.88,2.25-1.96,3-3.23l3.56,3.89c-1.19,1.85-2.71,3.33-4.55,4.46Z"/>
    <path class="cls-1" d="m558.85,122.99c0,2.64-.28,5.04-.83,7.19-.55,2.16-1.34,4-2.38,5.54-1.03,1.54-2.3,2.74-3.79,3.6-1.5.86-3.19,1.29-5.08,1.29s-3.52-.43-5.02-1.29c-1.5-.86-2.76-2.06-3.79-3.6-1.03-1.54-1.83-3.39-2.38-5.54-.55-2.16-.83-4.55-.83-7.19s.27-5.06.83-7.26c.55-2.2,1.33-4.07,2.34-5.61,1.01-1.54,2.27-2.74,3.76-3.6,1.5-.86,3.19-1.29,5.08-1.29s3.59.43,5.08,1.29c1.5.86,2.76,2.06,3.79,3.6,1.03,1.54,1.83,3.41,2.38,5.61.55,2.2.83,4.62.83,7.26Zm-5.81-.03c0-1.8-.12-3.48-.36-5.04-.24-1.56-.63-2.91-1.16-4.05-.53-1.14-1.19-2.04-1.98-2.7-.79-.66-1.72-.99-2.77-.99s-1.98.33-2.77.99c-.79.66-1.44,1.56-1.95,2.7s-.88,2.49-1.12,4.05c-.24,1.56-.36,3.24-.36,5.04s.12,3.47.36,5c.24,1.54.62,2.88,1.12,4.02s1.16,2.04,1.95,2.7c.79.66,1.72.99,2.77.99s2.05-.33,2.84-.99c.79-.66,1.44-1.56,1.95-2.7s.88-2.48,1.12-4.02c.24-1.54.36-3.2.36-5Z"/>
    <path class="cls-1" d="m566.31,139.49v-49.9h5.68v49.9h-5.68Z"/>
    <path class="cls-1" d="m581.29,139.49v-49.9h5.68v49.9h-5.68Z"/>
    <path class="cls-1" d="m600.1,124.38c0,1.59.14,3.08.43,4.45.29,1.37.7,2.57,1.25,3.58.55,1.02,1.24,1.81,2.08,2.39.83.58,1.8.86,2.9.86,1.5,0,2.68-.46,3.56-1.39.88-.92,1.58-2.02,2.11-3.3l4.22,2.44c-.88,2.1-2.15,3.83-3.79,5.17-1.65,1.35-3.75,2.02-6.3,2.02-3.78,0-6.75-1.55-8.91-4.65-2.16-3.1-3.23-7.42-3.23-12.97,0-2.64.29-5.05.86-7.23.57-2.18,1.39-4.05,2.44-5.61,1.06-1.56,2.33-2.77,3.83-3.63,1.5-.86,3.15-1.29,4.95-1.29,2.02,0,3.74.43,5.15,1.29,1.41.86,2.56,2.02,3.47,3.5.9,1.47,1.55,3.21,1.95,5.21.4,2,.59,4.15.59,6.43v2.71h-17.56Zm11.88-4.55c0-2.88-.45-5.21-1.35-6.98-.9-1.77-2.32-2.66-4.26-2.66-1.14,0-2.1.34-2.87,1.02-.77.68-1.4,1.51-1.88,2.49-.49.98-.84,2.03-1.06,3.15-.22,1.12-.33,2.11-.33,2.98h11.75Z"/>
    <path class="cls-1" d="m642.14,106.36h5.48v33.13c0,2.24-.21,4.32-.63,6.24s-1.12,3.58-2.11,5.02c-.99,1.43-2.29,2.55-3.89,3.37-1.61.81-3.58,1.22-5.91,1.22s-4.37-.47-6.37-1.42c-2-.95-3.64-2.21-4.92-3.79l3.5-3.96c.97,1.19,2.13,2.17,3.5,2.94s2.86,1.16,4.49,1.16c1.36,0,2.48-.28,3.37-.83.88-.55,1.58-1.31,2.11-2.28.53-.97.89-2.11,1.09-3.43.2-1.32.3-2.73.3-4.22v-5.21h-.13c-.53,1.8-1.38,3.31-2.54,4.52-1.17,1.21-2.89,1.82-5.18,1.82-1.67,0-3.17-.45-4.49-1.35-1.32-.9-2.43-2.14-3.33-3.73-.9-1.58-1.58-3.46-2.05-5.64-.46-2.18-.69-4.56-.69-7.16s.22-4.89.66-7.03c.44-2.13,1.11-3.98,2.01-5.54.9-1.56,2.01-2.77,3.33-3.63,1.32-.86,2.84-1.29,4.55-1.29,1.94,0,3.57.55,4.92,1.65,1.34,1.1,2.25,2.51,2.74,4.22h.2v-4.75Zm0,16.57c0-1.8-.13-3.49-.39-5.05-.27-1.56-.67-2.91-1.22-4.06-.55-1.14-1.22-2.05-2.01-2.71-.79-.66-1.72-.99-2.77-.99s-2.04.33-2.81.99-1.41,1.56-1.91,2.71c-.51,1.14-.88,2.5-1.12,4.06-.24,1.56-.36,3.25-.36,5.05s.12,3.48.36,5.02c.24,1.54.62,2.88,1.12,4.03.51,1.15,1.14,2.05,1.91,2.71.77.66,1.71.99,2.81.99s1.99-.33,2.8-.99c.81-.66,1.48-1.56,2.01-2.71.53-1.14.92-2.49,1.19-4.03.26-1.54.39-3.21.39-5.02Z"/>
    <path class="cls-1" d="m660.75,124.38c0,1.59.14,3.08.43,4.45.29,1.37.7,2.57,1.25,3.58.55,1.02,1.24,1.81,2.08,2.39.83.58,1.8.86,2.9.86,1.5,0,2.68-.46,3.56-1.39.88-.92,1.58-2.02,2.11-3.3l4.22,2.44c-.88,2.1-2.14,3.83-3.79,5.17s-3.75,2.02-6.3,2.02c-3.79,0-6.75-1.55-8.91-4.65-2.16-3.1-3.23-7.42-3.23-12.97,0-2.64.29-5.05.86-7.23.57-2.18,1.39-4.05,2.44-5.61,1.06-1.56,2.33-2.77,3.83-3.63,1.5-.86,3.15-1.29,4.95-1.29,2.02,0,3.74.43,5.15,1.29,1.41.86,2.56,2.02,3.46,3.5.9,1.47,1.55,3.21,1.95,5.21.4,2,.59,4.15.59,6.43v2.71h-17.56Zm11.88-4.55c0-2.88-.45-5.21-1.35-6.98-.9-1.77-2.32-2.66-4.26-2.66-1.14,0-2.1.34-2.87,1.02-.77.68-1.4,1.51-1.88,2.49-.48.98-.84,2.03-1.06,3.15-.22,1.12-.33,2.11-.33,2.98h11.75Z"/>
  </g>
  <path class="cls-2" d="m34.29,92.83l-17.41,3.84c-4.41.97-7.82,6.64-6.41,11.96,1.41,5.33,6.82,8.57,12.09,7.35,3.24-.76,6.16-3.27,6.9-5.9l4.83-17.25h0Zm20.72-35.68l17-3.96c4.4-1.03,7.86-6.49,6.45-11.82-1.41-5.32-6.82-8.57-12.09-7.35-3.24.76-6.22,3.26-6.9,5.9l-4.46,17.22h0ZM0,0h162v76.03l-10.35,2.41c-.41,5.79-4.06,8.65-7.87,9.28-5.33.88-10.82-1.98-12.24-7.31-1.41-5.32,2.16-10.97,6.55-12l10.99-2.56,3.71-12.27-16.13,3.76c-9.48,2.21-16.13,10.5-16.33,19.71-.07.21-.09.6-.06,1.19.55,10.87-5.51,16.6-10.94,17.5-5.33.88-10.68-2.02-12.09-7.34-1.41-5.33,2.01-10.94,6.41-11.97l10.99-2.56,3.71-12.27-16.12,3.76c-9.49,2.21-16.13,10.5-16.33,19.71-.07.21-.09.6-.06,1.19.55,10.87-5.52,16.6-10.94,17.5-5.33.88-10.68-2.02-12.09-7.34-1.41-5.32,2.01-10.94,6.41-11.96l10.99-2.56,3.72-12.26-34.54,8.06,2.36-8.44,21.78-5.34c11.32-2.78,18.77-13.57,15.79-24.81-2.98-11.23-14.38-18.09-25.51-15.5-6.83,1.59-12.72,6.83-14.25,12.38l-6.64,24.13-28.82,6.69-3.27,11.85,29.28-6.86-2.47,8.44-22,5.31c-9.02,2.18-13.98,7.97-15.61,14.56V0h0Zm162,82.16v79.84H0v-51.69c2.38,10.15,11.7,18.82,25.45,16,6.88-1.41,12.81-6.79,14.25-12.38l6.19-23.97,6.21-1.51c-.96,2.96-.91,6.7.02,10.2,2.98,11.23,14.38,18.09,25.51,15.5,6.83-1.59,12.43-6.08,14.89-12.93l-.24-.75c5.08,4.99,12.5,7.36,19.8,5.66,6.83-1.59,12.43-6.08,14.89-12.94l-.24-.75c5.08,4.99,12.49,7.36,19.79,5.65,7.31-1.7,12.93-6.64,15.48-15.94h0Z"/>
</svg>