<?xml version="1.0" encoding="utf-8"?>
<!-- Generator: Adobe Illustrator 21.0.2, SVG Export Plug-In . SVG Version: 6.00 Build 0)  -->
<svg version="1.1" id="Layer_1" xmlns="http://www.w3.org/2000/svg" xmlns:xlink="http://www.w3.org/1999/xlink" x="0px" y="0px"
	 viewBox="0 0 612 792" style="enable-background:new 0 0 612 792;" xml:space="preserve">
<style type="text/css">
	.st0{fill:#0456A4;}
</style>
<path class="st0" d="M338.2,401.7c-2.7,0.4-5.4-0.9-6.2-3.6c-0.7-2.7,1.1-5.4,3.3-6l5.4-1.3l1.8-6.2l-8,1.8c-4.7,1.1-8,5.2-8.1,9.8
	c0,0.2,0,0.4,0,0.5c0.4,5.4-2.7,8.3-5.4,8.7c-2.7,0.4-5.3-1.1-6-3.6c-0.7-2.7,1.1-5.4,3.3-6l5.4-1.3l1.8-6.2l-8,1.8
	c-4.7,1.1-8,5.3-8.1,9.8c0,0.2,0,0.4,0,0.5c0.4,5.4-2.7,8.3-5.4,8.7s-5.3-1.1-6-3.6c-0.7-2.7,1.1-5.4,3.3-6l5.4-1.3l1.8-6.2
	l-17.4,4.5l1.1-4.2l10.9-2.7c5.6-1.4,9.4-6.7,7.8-12.3c-1.4-5.6-7.2-9.1-12.7-7.8c-3.4,0.7-6.3,3.4-7.1,6.2l-3.3,11.9l-14.3,3.3
	l-1.6,6l14.7-3.4l-1.3,4.2l-11,2.7c-4.5,1.1-6.9,4-7.8,7.2v5.1c1.3,5.1,5.8,9.4,12.7,8c3.4-0.7,6.3-3.4,7.1-6.2l3.1-11.9l3.1-0.7
	c-0.5,1.4-0.4,3.3,0,5.1c1.4,5.6,7.2,9.1,12.7,7.8c3.4-0.7,6.2-3.1,7.4-6.5l-0.2-0.4c2.5,2.5,6.2,3.6,9.8,2.9
	c3.4-0.7,6.2-3.1,7.4-6.5l-0.2-0.4c2.5,2.5,6.2,3.6,9.8,2.9c3.6-0.9,6.5-3.3,7.8-8v-3.1l-5.1,1.3C342,400.1,340.2,401.4,338.2,401.7
	z M296.2,378c0.4-1.3,1.8-2.5,3.4-2.9c2.7-0.5,5.3,1.1,6,3.6c0.7,2.5-1.1,5.4-3.3,6l-8.5,2L296.2,378z M281.4,413
	c-0.4,1.3-1.8,2.5-3.4,2.9c-2.7,0.5-5.3-1.1-6-3.6c-0.7-2.7,0.9-5.4,3.3-6l8.7-2L281.4,413z"/>
</svg>
