<?xml version="1.0" encoding="utf-8"?>
<!-- Generator: Adobe Illustrator 27.7.0, SVG Export Plug-In . SVG Version: 6.00 Build 0)  -->
<svg version="1.1" id="Layer_1" xmlns="http://www.w3.org/2000/svg" xmlns:xlink="http://www.w3.org/1999/xlink" x="0px" y="0px"
	 viewBox="0 0 580.8 580.8" style="enable-background:new 0 0 580.8 580.8;" xml:space="preserve">
<style type="text/css">
	.st0{fill:#FFFFFF;}
</style>
<path class="st0" d="M508.2,0H72.6C31.6,0,0,31.6,0,72.6v435.6c0,41,31.6,72.6,72.6,72.6h435.6c41,0,72.6-31.7,72.6-72.6V72.6
	C580.8,31.7,549.2,0,508.2,0z M290.7,176.4c64.5,0,116.6,50.6,116.6,113s-52.2,113-116.6,113c-64.4,0-116.6-50.6-116.6-113
	C174.2,226.9,226.4,176.4,290.7,176.4z M508.2,490.2c0,12.7-5.4,18.2-18.2,18.2H90.7c-12.7,0-18.2-5.4-18.2-18.2V236.1l45.3,9.8
	c-4.8,15.8-7.5,32.5-7.5,49.8c0,96.5,80.8,174.9,180.4,174.9c99.7,0,180.5-78.4,180.5-174.9c0-17.3-2.6-34-7.5-49.8l44.3-9.8
	L508.2,490.2L508.2,490.2z M508.2,163.4c0,10.1-8.1,18.2-18.2,18.2h-72.6c-10.1,0-18.2-8.1-18.2-18.2V90.8
	c0-10.1,8.1-18.2,18.2-18.2H490c10.1,0,18.2,8.1,18.2,18.2V163.4z"/>
</svg>
