<?xml version="1.0" encoding="utf-8"?>
<!-- Generator: Adobe Illustrator 27.7.0, SVG Export Plug-In . SVG Version: 6.00 Build 0)  -->
<svg version="1.1" id="Layer_1" xmlns="http://www.w3.org/2000/svg" xmlns:xlink="http://www.w3.org/1999/xlink" x="0px" y="0px"
	 viewBox="0 0 580.8 580.8" style="enable-background:new 0 0 580.8 580.8;" xml:space="preserve">
<style type="text/css">
	.st0{fill:#FFFFFF;}
</style>
<path class="st0" d="M544.5,0H36.3C16.3,0,0,16.3,0,36.3v508.2c0,20,16.3,36.3,36.3,36.3h272.2V363H236v-90.7h72.6v-54.5
	c0-74.8,42.2-127,108.9-127c31.9,0,54.5,0,72.6,0v90.7h-36.3c-36.3,0-54.5,18.2-54.5,54.5v36.3H490L471.8,363h-72.6v217.8h145.2
	c20,0,36.3-16.3,36.3-36.3V36.3C580.8,16.3,564.5,0,544.5,0z"/>
</svg>
