<?xml version="1.0" encoding="utf-8"?>
<!-- Generator: Adobe Illustrator 27.7.0, SVG Export Plug-In . SVG Version: 6.00 Build 0)  -->
<svg version="1.1" id="Layer_1" xmlns="http://www.w3.org/2000/svg" xmlns:xlink="http://www.w3.org/1999/xlink" x="0px" y="0px"
	 viewBox="0 0 580.8 580.8" style="enable-background:new 0 0 580.8 580.8;" xml:space="preserve">
<style type="text/css">
	.st0{fill:#FFFFFF;}
</style>
<path class="st0" d="M544.5,0H36.3C16.2,0,0,16.3,0,36.3v508.2c0,20,16.2,36.3,36.3,36.3h508.2c20,0,36.3-16.3,36.3-36.3V36.3
	C580.8,16.3,564.5,0,544.5,0z M434.5,217.6c0.1,3.1,0.2,6.3,0.2,9.5c0,96.9-74.9,208.6-211.7,208.6c-42,0-81.2-12.1-114.1-32.9
	c5.8,0.7,11.8,1,17.8,1c34.9,0,67-11.7,92.4-31.4c-32.5-0.6-60-21.8-69.5-50.9c4.5,0.9,9.2,1.3,14,1.3c6.8,0,13.4-0.9,19.6-2.6
	c-34-6.7-59.7-36.4-59.7-71.9c0-0.4,0-0.6,0-0.9c10,5.5,21.5,8.8,33.7,9.2c-19.9-13.2-33.1-35.6-33.1-60.9c0-13.5,3.7-26,10.1-36.9
	c36.7,44.3,91.6,73.5,153.4,76.6c-1.2-5.4-1.9-11-1.9-16.8c0-40.5,33.3-73.3,74.4-73.3c21.4,0,40.8,8.9,54.3,23.2
	c17-3.3,32.9-9.4,47.2-17.8c-5.5,17.1-17.4,31.4-32.7,40.5c15.1-1.8,29.4-5.7,42.8-11.5C461.7,194.3,449,207.2,434.5,217.6z"/>
</svg>
