<?xml version="1.0" encoding="utf-8"?>
<!-- Generator: Adobe Illustrator 27.7.0, SVG Export Plug-In . SVG Version: 6.00 Build 0)  -->
<svg version="1.1" id="Layer_1" xmlns="http://www.w3.org/2000/svg" xmlns:xlink="http://www.w3.org/1999/xlink" x="0px" y="0px"
	 viewBox="0 0 580.8 580.8" style="enable-background:new 0 0 580.8 580.8;" xml:space="preserve">
<style type="text/css">
	.st0{fill:#FFFFFF;}
</style>
<path class="st0" d="M544.5,0H36.3C16.3,0,0,16.3,0,36.3v508.2c0,20,16.3,36.3,36.3,36.3h508.2c20,0,36.3-16.3,36.3-36.3V36.3
	C580.8,16.3,564.5,0,544.5,0z M199.6,453.7H127V199.7h72.6V453.7z M163.3,181.5c-20,0-36.3-16.3-36.3-36.3s16.3-36.3,36.3-36.3
	s36.3,16.3,36.3,36.3S183.3,181.5,163.3,181.5z M453.7,453.7h-72.6V308.5c0-23.8-13.3-36.3-36.3-36.3c-23.5,0-36.3,12.8-36.3,36.3
	v145.2H236V199.7h72.6V236c4.1-17.8,12.8-36.3,63.5-36.3c72.2,0,81.7,54.5,81.7,127L453.7,453.7L453.7,453.7z"/>
</svg>
