<?xml version="1.0" encoding="utf-8"?>
<!-- Generator: Adobe Illustrator 27.7.0, SVG Export Plug-In . SVG Version: 6.00 Build 0)  -->
<svg version="1.1" id="Layer_1" xmlns="http://www.w3.org/2000/svg" xmlns:xlink="http://www.w3.org/1999/xlink" x="0px" y="0px"
	 viewBox="0 0 580.8 580.8" style="enable-background:new 0 0 580.8 580.8;" xml:space="preserve">
<style type="text/css">
	.st0{fill-rule:evenodd;clip-rule:evenodd;fill:#FFFFFF;}
</style>
<path class="st0" d="M453.3,427.2V313.8c0-60.7-32.4-89-75.7-89c-34.8,0-50.5,19.2-59.2,32.6v-28h-65.7c0.9,18.6,0,197.8,0,197.8
	h65.7V316.8c0-5.9,0.4-11.8,2.1-16.1c4.7-11.8,15.6-24,33.7-24c23.8,0,33.3,18.1,33.3,44.7v105.8L453.3,427.2L453.3,427.2z
	 M183.5,202.5c22.9,0,37.2-15.2,37.2-34.2c-0.4-19.4-14.3-34.2-36.8-34.2c-22.5,0-37.2,14.7-37.2,34.2c0,19,14.2,34.2,36.3,34.2
	H183.5z M216.3,427.2V229.4h-65.7v197.8H216.3z M0,0h580.8v580.8H0V0z"/>
</svg>
