<?xml version="1.0" encoding="utf-8"?>
<!-- Generator: Adobe Illustrator 27.7.0, SVG Export Plug-In . SVG Version: 6.00 Build 0)  -->
<svg version="1.1" id="Layer_1" xmlns="http://www.w3.org/2000/svg" xmlns:xlink="http://www.w3.org/1999/xlink" x="0px" y="0px"
	 viewBox="0 0 580.8 580.8" style="enable-background:new 0 0 580.8 580.8;" xml:space="preserve">
<style type="text/css">
	.st0{fill-rule:evenodd;clip-rule:evenodd;fill:#FFFFFF;}
</style>
<path class="st0" d="M399.5,218.6L399.5,218.6c4.8-0.1,9.8,0,14.6-0.1c6.3-0.2,11.3-5.5,11.3-11.8c0-9.3,0-18.7,0-28
	c0-6.7-5.3-12-12-12c-9.3,0-18.6,0-27.9,0c-6.7,0-12,5.3-12,12c0,9.2,0,18.5,0,27.7c0,1.4,0.3,2.8,0.7,4.2c1.6,4.9,6.2,7.9,11.7,7.9
	C390.5,218.6,394.9,218.6,399.5,218.6z M309.7,230.5c-32.7,0-59.4,26.3-59.8,58.9c-0.5,33.5,26.3,60,58.5,60.7
	c33.4,0.7,60.5-26,61.2-58.5C370.2,258.2,343.2,230.5,309.7,230.5z M194,262.4v0.8c0,43.7,0,87.4,0,131.1c0,6.3,5.4,11.7,11.7,11.7
	c69.3,0,138.6,0,207.9,0c6.4,0,11.7-5.4,11.7-11.7c0-43.7,0-87.3,0-131v-0.9h-28.2c4,12.7,5.2,25.7,3.7,38.8
	c-1.5,13.2-5.8,25.5-12.8,36.8c-7,11.3-15.9,20.7-26.9,28.3c-28.5,19.5-66,21.1-96.3,4.2c-15.3-8.5-27.3-20.5-35.6-35.9
	c-12.5-22.9-14.5-47.1-7.2-72.1C212.8,262.4,203.5,262.4,194,262.4z M427.8,438c1.5-0.3,3.1-0.5,4.6-0.8
	c12.1-2.6,21.9-12.6,24.3-24.8c0.2-1.4,0.4-2.6,0.7-4V172.2c-0.2-1.3-0.4-2.6-0.6-3.9c-2.6-13.3-13.6-23.5-26.9-25.4
	c-0.6-0.1-1.1-0.2-1.6-0.3h-237c-1.5,0.3-2.9,0.5-4.3,0.8c-13.1,3-22.7,13.6-24.6,26.8c-0.1,0.6-0.2,1.1-0.3,1.6v237
	c0.3,1.5,0.5,3,0.8,4.5c2.9,12.8,13.8,22.7,26.8,24.4c0.6,0.1,1.3,0.2,1.9,0.3H427.8z M0,0h580.8v580.8H0V0z"/>
</svg>
