<?xml version="1.0" encoding="utf-8"?>
<!-- Generator: Adobe Illustrator 27.7.0, SVG Export Plug-In . SVG Version: 6.00 Build 0)  -->
<svg version="1.1" id="Layer_1" xmlns="http://www.w3.org/2000/svg" xmlns:xlink="http://www.w3.org/1999/xlink" x="0px" y="0px"
	 viewBox="0 0 581 580.8" style="enable-background:new 0 0 581 580.8;" xml:space="preserve">
<style type="text/css">
	.st0{fill-rule:evenodd;clip-rule:evenodd;fill:#FFFFFF;}
</style>
<path class="st0" d="M330.7,176.9c-25.4,9.2-41.3,33-39.6,59l0.6,10.1l-10.2-1.3c-36.9-4.7-69.1-20.7-96.5-47.6l-13.4-13.4l-3.5,9.9
	c-7.3,22-2.6,45.1,12.6,60.7c8.1,8.6,6.3,9.9-7.7,4.7c-4.8-1.6-9.1-2.9-9.5-2.2c-1.5,1.5,3.5,20.1,7.3,27.5
	c5.2,10.3,16,20.3,27.8,26.2l10,4.7l-11.7,0.2c-11.3,0-11.7,0.2-10.6,4.5c4.1,13.4,20,27.5,37.9,33.7l12.6,4.3l-10.9,6.6
	c-16.3,9.4-35.3,14.7-54.4,15.2c-9.1,0.2-16.6,1.1-16.6,1.6c0,2,24.8,13.6,39.1,18c43.2,13.4,94.6,7.5,133.1-15.2
	c27.4-16.2,54.8-48.4,67.6-79.6c6.9-16.6,13.8-46.9,13.8-61.6c0-9.5,0.6-10.6,12-22c6.7-6.6,13-13.7,14.2-15.8
	c2-3.9,1.8-3.9-8.5-0.4c-17.2,6.2-19.6,5.3-11.1-3.9c6.3-6.6,13.7-18.5,13.7-22c0-0.6-3,0.4-6.5,2.2c-3.7,2-11.7,5.1-17.8,7
	l-10.9,3.5l-10-6.8c-5.5-3.7-13.2-7.7-17.2-9C355.8,173.3,340,173.7,330.7,176.9z M0,0h580.8v580.8H0V0z"/>
</svg>
