<svg id="Layer_1" data-name="Layer 1" xmlns="http://www.w3.org/2000/svg" viewBox="0 0 59.38 59.38"><defs><style>.cls-1{fill:#0456a4;}</style></defs><title>twitter_lc_blue</title><path class="cls-1" d="M306.8,366.55a29.69,29.69,0,1,0,29.69,29.69A29.71,29.71,0,0,0,306.8,366.55Zm11.77,23.53v.72c0,8-6.16,17.38-17.38,17.38a18.44,18.44,0,0,1-9.41-2.72h1.45a12.39,12.39,0,0,0,7.6-2.53,5.87,5.87,0,0,1-5.61-4.16c.36,0,.72.18,1.09.18a5,5,0,0,0,1.63-.18,6.2,6.2,0,0,1-4.89-6h0a5.11,5.11,0,0,0,2.72.72,6,6,0,0,1-2.72-5.07,6.1,6.1,0,0,1,.91-3.08,17.22,17.22,0,0,0,12.49,6.34,3.53,3.53,0,0,1-.18-1.45,6.1,6.1,0,0,1,6.16-6.16,6.17,6.17,0,0,1,4.53,2,8.78,8.78,0,0,0,3.8-1.45A7.24,7.24,0,0,1,318,388.1a19.1,19.1,0,0,0,3.44-.91A7.41,7.41,0,0,1,318.56,390.09Z" transform="translate(-277.11 -366.55)"/></svg>