<?xml version="1.0" encoding="utf-8"?>
<!-- Generator: Adobe Illustrator 21.0.2, SVG Export Plug-In . SVG Version: 6.00 Build 0)  -->
<svg version="1.1" id="Layer_1" xmlns="http://www.w3.org/2000/svg" xmlns:xlink="http://www.w3.org/1999/xlink" x="0px" y="0px"
	 viewBox="0 0 612 792" style="enable-background:new 0 0 612 792;" xml:space="preserve">
<style type="text/css">
	.st0{fill:#FFFFFF;}
</style>
<path class="st0" d="M51.2,557.7c56.5,4.5,107.1-9.5,153.1-44.1c-48-4.1-80.2-28.1-98-73.1c16.1,2,31.1,2.4,46.9-2.1
	c-30.2-7.4-52.9-23.4-68.6-49.1c-10.1-16.6-16.3-40.2-14.3-54.6c14.2,7.1,28.9,11.9,46.3,12.4c-22.9-16.8-37.6-37.7-43.5-64.3
	c-5.8-26.4-1.9-51.4,11.5-75.5c56.9,66.9,128.6,103.6,216.2,109.7c-0.7-6.3-1.5-11.9-1.9-17.7c-3.9-51.3,33.2-99.9,83.8-109.3
	c36.4-6.8,68.2,2.8,95.1,28.4c2.1,2,3.8,2.4,6.6,1.8c20-4.4,38.9-11.5,56.8-21.3c1.6-0.9,3.2-1.7,5.7-3
	c-3.9,12.4-9.3,23.2-17.2,32.1c-7.9,8.9-16.8,16.8-25.1,25c18.7-2.1,37.1-7.7,56.2-15.6c-1.5,2.3-2.2,3.6-3.1,4.9
	c-12.4,17.4-26.9,32.6-44,45.4c-3.4,2.6-4.6,5.1-4.6,9.4c-0.9,109.8-44.7,197.5-135.7,260.1c-38.7,26.6-82.6,40.2-129.3,44.9
	c-67.3,6.8-130.1-6.7-188.3-41.5C54.2,559.7,52.7,558.7,51.2,557.7z"/>
</svg>
