<?xml version="1.0" encoding="UTF-8"?>
<svg xmlns="http://www.w3.org/2000/svg" version="1.1" viewBox="0 0 33.3 33.5">
  <defs>
    <style>
      .cls-1 {
        fill: #fff;
      }
    </style>
  </defs>
  <!-- Generator: Adobe Illustrator 28.6.0, SVG Export Plug-In . SVG Version: 1.2.0 Build 709)  -->
  <g>
    <g id="RAW_ICONS_-_SQUARE__x2F__ROUNDED__x2F__CIRCLE">
      <g>
        <polygon class="cls-1" points="16.8 14.7 12.1 7.9 9.5 7.9 15.4 16.3 16.2 17.4 16.2 17.4 21.2 24.6 23.7 24.6 17.6 15.8 16.8 14.7"/>
        <path class="cls-1" d="M16.6.5C7.6.5.2,7.8.2,16.9s7.3,16.4,16.4,16.4,16.4-7.3,16.4-16.4S25.7.5,16.6.5ZM20.4,25.8l-5.1-7.4-6.4,7.4h-1.6l7.3-8.5L7.3,6.7h5.6l4.8,7,6-7h1.6l-7,8.1h0l7.6,11h-5.6Z"/>
      </g>
    </g>
  </g>
</svg>